<?xml version="1.0" encoding="utf-8"?>
<!-- Generator: Adobe Illustrator 16.0.0, SVG Export Plug-In . SVG Version: 6.00 Build 0)  -->
<!DOCTYPE svg PUBLIC "-//W3C//DTD SVG 1.1//EN" "http://www.w3.org/Graphics/SVG/1.1/DTD/svg11.dtd">
<svg version="1.1" id="Layer_1" xmlns="http://www.w3.org/2000/svg" xmlns:xlink="http://www.w3.org/1999/xlink" x="0px" y="0px"
	 width="656px" height="154px" viewBox="0 0 656 154" enable-background="new 0 0 656 154" xml:space="preserve">
<g>
	<g>
		<path fill="#E3E0E0" d="M150.511,70.084l-0.201,10.48l-1.476,0.588c-2.773,0.983-5.682,2.467-8.421,3.64
			c-5.312,2.272-11.459,5.081-16.66,7.213l-6.241,2.71c-0.47,0.195-1.503,0.852-1.994,0.813c-1.038-0.276-17.03-7.676-17.198-7.826
			c-0.458,0.357-2.297,0.884-2.928,1.1c-0.996,0.342-1.945,0.654-2.969,1.008c-0.779,0.271-5.564,2.063-5.912,1.906
			c1.151,0.885,2.492,1.738,3.689,2.592c1.258,0.896,2.406,1.687,3.696,2.601l16.663,11.681c0.649,0.454,1.187,0.901,1.842,1.303
			c1.093,0.67,2.913,2.225,3.908,2.603l6.333,4.46c0.699,0.459,1.519,1.15,2.249,1.447l42.059-30.32
			c0.386-0.276,0.454-0.303,0.78-0.506l1.639-1.203c0.353-0.232,0.479-0.354,0.813-0.607l4.896-3.494
			c1.898-1.52,5.781-4.1,8.093-5.847c0.594-0.45,1.028-0.657,1.617-1.091c0.297-0.219,0.477-0.397,0.791-0.626l10.614-7.596
			c0.547-0.397,1.05-0.743,1.586-1.121l12.952-9.373c0.44-0.266,0.412-0.225,0.843-0.579c1.475-1.212,4.212-2.92,5.706-4.108
			l3.22-2.328c1.397-1.15,6.174-4.274,7.779-5.589L150.511,70.084z"/>
		<path fill="#E7AA73" d="M84.351,62.974l-0.012,0.689l-0.317,16.965c0.589,0.563,12.392,5.78,14.159,6.522
			c0.168,0.146,16.161,7.399,17.199,7.673l0.541-36.448l4.117-1.266l0.341,0.047l0.117-0.167l0.317,0.04l0.165-0.147l2.14-0.531
			l0.124-0.145l0.318,0.02l0.141-0.139c1.23-0.275,7.492-1.939,8.068-2.389c-1.037-0.438-2.74-0.795-3.854-1.127l-23.03-6.62
			c-0.622-0.177-1.232-0.36-1.896-0.548c-0.568-0.162-1.398-0.284-1.815-0.666l-14.457,3.186c-0.64,0.143-1.479,0.403-2.137,0.407
			L84.351,62.974z"/>
		<path fill="#C5885B" d="M147.839,49.399c-0.041,0.024-0.293,0.113-0.368,0.125c-0.621,0.099-0.133,0.114-0.521-0.013l-0.151,0.123
			l0.161,0.029l-9.834,2.764l-0.463,11.922c-0.053,0.249-0.116,0.107-0.195,0.233l-0.175,0.627c-0.579-0.412-0.222-0.584-0.532,0.23
			c-0.164-0.125-0.29-0.252-0.515-0.362l-0.291,0.852l-0.445-0.586l-0.344,0.808c-0.358-0.307-0.13-0.23-0.555-0.479l-0.246,0.945
			c-0.125-0.286-0.393-0.598-0.611-0.776l-0.593,1.064c-0.628-1.451-0.012-10.542-0.045-12.987
			c-1.322,0.224-2.907,0.782-4.211,1.145c-0.789,0.219-3.479,1.222-4.066,0.95l-0.14,0.142l0.196,0.079
			c-0.584,0.057-0.255,0.056-0.515-0.098l-0.125,0.147l0.181,0.067c-0.465,0.075-0.838,0.196-1.294,0.329
			c-0.359,0.104-0.72,0.258-1.026,0.146l-0.165,0.15l0.138,0.023c-0.694,0.111-0.317,0.002-0.455-0.064l-0.116,0.171l0.104,0.01
			c-0.766,0.141-0.256,0.022-0.445-0.058l-4.117,1.292l-0.542,37.18c0.491,0.037,1.524-0.618,1.994-0.813l6.241-2.71
			c5.201-2.132,11.35-4.939,16.66-7.213c2.739-1.173,5.647-2.654,8.421-3.639l1.476-0.59l0.201-10.479l0.099-6.675l0.162-9.176
			l0.028-0.779l0.075-4.9C150.058,48.782,148.141,49.007,147.839,49.399"/>
		<path fill="#BDBDBD" d="M150.8,53.454l-0.028,0.779c6.126-0.703,12.424-1.774,18.552-2.632c6.154-0.862,12.31-1.847,18.471-2.646
			c1.725-0.224,35.501-5.264,36.951-5.157l-74.136,19.61l-0.099,6.675l77.769-26.075c-1.605,1.314-6.382,4.439-7.779,5.589
			l-3.22,2.328c-1.494,1.188-4.231,2.896-5.706,4.108c-0.431,0.354-0.402,0.313-0.843,0.579l-12.953,9.373
			c-0.535,0.378-1.038,0.724-1.585,1.121l-10.614,7.596c-0.314,0.229-0.494,0.408-0.791,0.626c-0.589,0.434-1.023,0.641-1.617,1.091
			c-2.312,1.748-6.194,4.327-8.093,5.847l-4.896,3.494c-0.333,0.254-0.459,0.375-0.813,0.607l-1.639,1.203
			c-0.326,0.203-0.396,0.229-0.78,0.506l-42.059,30.32c-0.73-0.297-1.549-0.988-2.249-1.447l-6.333-4.46
			c-0.995-0.38-2.815-1.933-3.908-2.603c-0.655-0.4-1.192-0.849-1.842-1.303L93.896,96.906c-1.29-0.914-2.438-1.705-3.696-2.6
			c-1.197-0.854-2.538-1.707-3.689-2.592c0.348,0.154,5.133-1.636,5.913-1.906c1.022-0.354,1.972-0.666,2.968-1.009
			c0.631-0.216,2.47-0.741,2.928-1.1c-1.769-0.759-13.571-6.078-14.16-6.654c-2.01,0.453-4.118,1.074-6.125,1.604
			c-4.004,1.057-3.416,1.256-6.088,0.272c-3.861-1.42-7.58-2.739-11.296-4.147l-22.613-8.323l46.439-6.711l0.013-0.703
			c-0.916-0.016-2.217,0.271-3.166,0.41l-46.475,6.64c0.029,0.02,0.077,0.011,0.091,0.054c0.013,0.042,0.07,0.042,0.09,0.053
			c0.006,0.003,0.282,0.144,0.286,0.145l14.161,5.162c3.108,1.097,23.435,8.625,24.673,8.93c-0.012,0.699,0.291,1.883,0.446,2.627
			l5.866,28.812c0.605,3.028,1.48,7.839,2.149,10.543c0.391-0.611,1.317-14.937,1.544-17.076c0.241-2.285,1.154-16.295,1.52-17.088
			l25.853,17.912l13.211,9.106l5.015-3.521c0.644-0.456,1.095-0.813,1.727-1.261c1.19-0.838,2.203-1.596,3.394-2.438
			c0.602-0.428,1.102-0.782,1.665-1.181c16.292-11.521,32.659-23.668,48.974-35.234c9.013-6.39,18.046-13.083,27.058-19.456
			c0.58-0.41,1.058-0.785,1.645-1.202l8.533-6.117c0.598-0.421,1.075-0.799,1.644-1.201l3.394-2.439
			c0.627-0.445,1.119-0.796,1.748-1.238c0.61-0.431,3.008-2.095,3.312-2.522c-2.041,0.43-0.94,0.49-4.766,1.046l-56.65,8.077
			C170.273,50.751,152.092,53.476,150.8,53.454"/>
		<path fill="#8A8888" d="M82.611,126.412c0.354,0.236,1.413-0.588,1.747-0.777c0.629-0.354,1.155-0.648,1.818-1.023l25.351-14.45
			L85.675,92.248c-0.365,0.793-1.278,14.803-1.52,17.088C83.929,111.477,83.002,125.801,82.611,126.412"/>
		<path fill="#E3E0E0" d="M84.159,81.047l0.317-17.306l-46.439,6.711l22.613,8.325c3.715,1.406,7.435,2.727,11.296,4.146
			c2.672,0.983,2.084,0.784,6.088-0.272C80.041,82.121,82.149,81.5,84.159,81.047 M150.771,54.233l-0.162,9.176l74.136-19.61
			c-1.45-0.107-35.227,4.933-36.951,5.156c-6.161,0.798-12.316,1.784-18.47,2.646C163.195,52.459,156.897,53.53,150.771,54.233z"/>
		<path fill="#E7AA73" d="M106.546,43.255l30.459,8.748l9.794-2.369l0.151-0.123l0.889-0.112c0.302-0.392,2.219-0.617,3.036-0.845
			c-0.194-0.155-0.002-0.042-0.294-0.164l-29.878-8.033c-1.116-0.285-7.14,1.335-8.489,1.641L106.546,43.255z"/>
		<path fill="#BBB8B8" d="M60.948,119.73c0.252,0.283,4.774,1.655,5.326,1.813c0.188,0.053,0.285,0.078,0.566,0.174
			c2.434,0.823,2.846,0.848,5.313,1.184c1.896,0.261,4.766,2.824,5.086-1.623c0.117-1.606-0.461-3.598-1.181-4.428
			c-1.091-1.26-1.979-1.479-4.182-1.584l-5.299-0.514c-1.858-0.121-3.714-0.346-5.534-0.376c-0.986-0.017-1.528-0.177-2.523-0.187
			l-12.787-0.781c-1.076-0.012-1.722-0.147-2.582-0.188c-1.063-0.05-1.687,0.043-2.591-0.182c0.35,0.484,4.251,1.537,4.878,1.756
			l10.226,3.346c0.947,0.291,1.589,0.496,2.536,0.787C59.094,119.203,59.971,119.65,60.948,119.73 M56.991,101.619l-7.913-0.66
			c-1.493-0.225-6.765-0.439-8.087-0.658c-1.363-0.225-2.514-0.133-3.918-0.31L24.988,98.96c-0.046,0.446-0.208,0.995-0.313,1.405
			c0.579,0.283,15.416,3.818,16.012,3.965l16.19,3.771l12.079,2.725c2.268,0.73,4.831,2.617,4.914-2.296
			c0.035-1.991-0.523-3.188-1.545-4.22c-0.555-0.561-0.85-0.879-1.645-1.215c-1.261-0.531-1.051-0.256-2.566-0.479L56.991,101.619z
			 M48.365,94.706c0.479,0.235,2.366,0.599,3.019,0.745l15.59,3.672c1.896,0.423,4.518,1.096,3.712-2.545
			c-0.663-2.996-1.488-5.766-4.488-6.697c-1.024-0.316-15.378-1.617-17.718-1.658l-4.877-0.506
			c-0.808-0.025-1.554-0.109-2.438-0.189l-24.624-2.325c-0.719-0.117-4.472-0.478-4.905-0.369c-0.433,0.108-1.453,0.772-1.662,1.044
			l14.334,3.335c1.643,0.361,3.193,0.701,4.832,1.106L48.365,94.706z"/>
		<path fill="#E1E1E1" d="M101.312,44.435c0.416,0.39,1.247,0.515,1.815,0.68c0.663,0.191,1.273,0.378,1.896,0.559l23.03,6.753
			c1.115,0.339,2.817,0.705,3.854,1.15c0.256,0.19,0.204-0.134,0.209,0.342c0.033,2.445-0.583,11.537,0.045,12.987l0.593-1.064
			c0.219,0.179,0.486,0.491,0.611,0.776l0.246-0.945c0.425,0.249,0.196,0.172,0.555,0.479l0.344-0.808l0.445,0.586l0.291-0.852
			c0.225,0.11,0.351,0.238,0.515,0.362c0.311-0.815-0.047-0.642,0.532-0.23l0.175-0.627c0.079-0.126,0.143,0.016,0.195-0.233
			l0.463-11.922c0.033-0.542,0.061-0.256-0.121-0.424l-30.459-8.748c-0.338,0.139-0.855,0.189-1.295,0.287
			c-0.384,0.086-0.784,0.18-1.269,0.29C103.034,44.047,102.212,44.254,101.312,44.435"/>
		<path fill="#9A6D4A" d="M146.799,49.634l-9.794,2.369c0.182,0.168,0.154-0.118,0.121,0.424l9.834-2.764L146.799,49.634z
			 M146.95,49.511c0.388,0.126-0.101,0.111,0.521,0.013c0.075-0.012,0.327-0.101,0.368-0.125L146.95,49.511z"/>
		<path fill="#9A6D4A" d="M120.518,57.104l-0.341-0.048c0.189,0.081-0.32,0.199,0.445,0.058L120.518,57.104z M120.951,56.975
			l-0.317-0.041c0.138,0.066-0.239,0.175,0.455,0.064L120.951,56.975z M123.256,56.283l-2.14,0.542
			c0.307,0.112,0.667-0.041,1.026-0.146c0.456-0.132,0.829-0.253,1.294-0.329L123.256,56.283z M123.699,56.155l-0.318-0.021
			c0.26,0.154-0.069,0.155,0.515,0.098L123.699,56.155z M123.839,56.013c0.588,0.271,3.277-0.731,4.066-0.95
			c1.304-0.363,2.889-0.921,4.211-1.145c-0.005-0.476,0.047-0.151-0.209-0.342C131.332,54.036,125.07,55.733,123.839,56.013z"/>
		<path fill="#D49C69" d="M116.974,58.649c-0.292,19.417-0.479,31.811-0.56,37.181c0,0-10.798-4.827-32.394-14.48
			c0.385-21.966,0.578-32.948,0.578-32.948C106.183,55.233,116.974,58.649,116.974,58.649"/>
	</g>
</g>
<path fill-rule="evenodd" clip-rule="evenodd" fill="#0F7CAF" d="M233.039,79.824c-0.025,1.458,0.063,3.35,0.182,4.678
	c0.627,7.014,1.968,13.074,5.753,19.079c4.052,6.427,9.214,11.021,16.068,14.304c8.184,3.92,21.116,4.916,30.292,2.525
	c3.27-0.853,6.68-1.932,9.533-3.525c1.01-0.564,1.863-1,2.818-1.589c0.444-0.273,0.812-0.544,1.275-0.858l2.519-1.891
	c4.439-3.389,8.507-8.287,11.089-13.137c0.556-1.045,0.967-1.833,1.491-2.934l1.301-3.127c-2.027-0.2-16.518-3.014-19.642-3.577
	c-0.807-0.146-2.043-0.458-2.87-0.472c-0.157,1.535-3.07,6.168-4.325,7.661c-1.948,2.319-4.19,4.052-7.12,5.115
	c-4.233,1.536-9.582,1.479-13.563-0.466c-4.75-2.32-7.577-6.859-8.068-12.038c-0.21-2.226-0.357-3.254-0.08-5.368l0.326-3.399
	c0.078-0.522,0.199-1.238,0.216-1.646l58.38,0.993c0.614,0.011,0.45-0.921,0.659-2.344c0.12-0.811,0.2-1.838,0.356-2.794
	c0.434-2.644,0.595-7.553,0.302-10.104c-0.092-0.804-0.09-1.422-0.171-2.194c-0.068-0.648-0.175-1.354-0.287-2.084
	c-0.896-5.884-3.292-12.388-6.785-17.132c-3.557-4.829-6.976-8.321-12.881-11.224c-9.79-4.813-24.597-4.969-34.962-1.09
	l-8.265,4.095c-1.072,0.686-4.053,2.918-5.17,3.936l-4.616,4.785c-3.878,4.496-6.938,9.332-9.467,15.212
	c-1.215,2.822-2.27,6.151-2.98,9.458C233.676,71.807,233.098,76.519,233.039,79.824 M262.371,64.253l1.054-3.666
	c2.652-7.981,7.892-15.777,17.987-15.605c2.6,0.044,4.325,0.262,6.449,1.239c0.986,0.454,2.256,1.201,3.09,1.925
	c1.082,0.941,1.51,1.377,2.381,2.595c2.502,3.496,2.364,7.97,2.008,12.104c-0.224,2.596,0.347,1.975-4.929,1.885L262.371,64.253z"/>
<path fill-rule="evenodd" clip-rule="evenodd" fill="#F69126" d="M482.3,77.711c-0.125,7.056,1.34,12.084,4.783,17.365
	c1.31,2.009,2.702,3.392,4.424,4.958c5.127,4.667,13.61,7.134,20.741,7.802c4.606,0.43,9.709,0.418,14.212-0.092
	c4.741-0.537,10.432-2.352,14.645-4.076c1.668-0.683,1.39-0.196,1.872-1.975c0.551-2.034,1.067-3.896,1.63-5.948
	c0.557-2.028,1.072-4.049,1.602-5.979c0.278-1.014,0.531-1.938,0.801-2.918c0.206-0.754,0.742-2.328,0.773-3.088
	c-4.687-0.08-2.141-0.432-7.357,2.863c-2.032,1.283-4.922,2.777-7.16,3.638c-6.927,2.659-18.878,2.726-23.824-3.315
	c-0.756-0.923-1.556-2.584-2.006-3.79c-1.831-4.907-0.775-13.281,0.993-17.666c1.177-2.919,3.15-6.346,5.268-8.428
	c2.364-2.325,5.004-4.444,8.28-5.513c4.207-1.373,5.667-1.401,10.147-1.325c4.082,0.069,7.23,1.152,10.595,2.858l3.048,1.964
	c0.976,0.748,3.706,3.312,4.177,4.222l3.451,0.059l5.231-19.224c-5.51-2.979-11.74-4.673-18.212-5.625L529.142,34
	c-1.067,0.124-2.554,0.206-3.653,0.31c-1.177,0.11-2.198,0.266-3.365,0.459c-1.922,0.318-4.535,0.89-6.349,1.447
	c-3.668,1.127-5.091,1.7-8.586,3.338C492.79,46.308,482.6,60.823,482.3,77.711"/>
<path fill-rule="evenodd" clip-rule="evenodd" fill="#F69126" d="M437.174,93.162c-2.896-0.05-5.323-0.137-7.751-1.254
	c-1.661-0.764-3.027-2.057-3.21-4.027c-0.223-2.385,0.065-4.23,0.886-6.087c1.454-3.292,5.108-5.173,8.575-6.079
	c5.356-1.401,7.311-1.264,12.569-1.88l6.831-0.528l-0.986,3.734c-0.359,1.306-0.627,2.422-0.959,3.759
	c-0.321,1.291-0.69,2.506-0.975,3.746c-0.932,4.063-0.474,3.347-4.051,5.357C445.284,91.49,440.612,93.221,437.174,93.162
	 M420.768,36.917c-0.025,0.607-0.267,1.391-0.408,2.025l-2.787,12.522c-0.156,0.701-0.397,1.449-0.41,2.166
	c2.836,0.048,1.615,0.181,4.527-0.715c0.902-0.278,1.629-0.468,2.529-0.733c4.682-1.379,11.579-3.168,16.614-3.083
	c4.629,0.079,15.329-0.013,17.501,5.187c0.842,2.013,0.496,4.132-0.01,6.107c-1.734-0.03-3.295,0.143-5.038,0.195
	c-5.423,0.164-19.151,1.642-23.606,2.586c-6.658,1.412-13.295,3.424-18.686,7.581c-1.063,0.821-1.805,1.584-2.775,2.492
	c-0.852,0.798-1.688,1.927-2.359,2.914c-2.171,3.189-3.765,7.961-3.84,12.172c-0.071,4.027-0.107,5.897,1.699,9.616
	c2.486,5.12,7.748,8.333,13.293,9.448c0.695,0.139,1.268,0.227,1.981,0.34c0.738,0.119,1.446,0.031,2.181,0.153
	c1.389,0.23,6.97-0.138,8.393-0.356c5.913-0.91,11.085-3.646,15.987-6.732l2.878-1.67l-1.421,5.445
	c-0.114,0.438-0.387,1.38-0.435,1.854l23.007,0.393l3.39-13.348c1.438-6.274,3.455-13.586,5.055-19.975
	c1.245-4.972,4.518-16.292,4.597-20.729c0.134-7.606-2.903-12.056-9.946-15.25c-9.749-4.421-27.269-4.093-38.359-2.779
	C429.669,35.294,425.064,36.013,420.768,36.917z"/>
<path fill-rule="evenodd" clip-rule="evenodd" fill="#F69126" d="M357.537,91.529c-3.875-0.065-5.851-0.082-9.564-1.198l-2.053-0.69
	l7.078-27.68c0.27-1.037,0.563-2.072,0.792-3.07c0.236-1.031,0.511-2.079,0.785-3.076c0.504-1.837,0.136-1.322,1.763-2.084
	c5.258-2.462,11.125-4.433,17.117-2.623c2.614,0.79,3.683,1.686,4.932,3.782c1.42,2.38,1.57,5.266,1.52,8.123
	c-0.145,8.138-2.463,14.692-5.784,19.666l-1.374,1.763C369.334,88.508,363.344,91.629,357.537,91.529 M357.973,42.62
	c0.112-1.086,1.67-6.188,1.709-7.16l-23.294-0.397l-6.032,24.005c-1.064,3.958-1.99,8.051-3.063,11.956
	c-1.57,5.715-2.974,12.196-4.544,17.912c-1.58,5.749-3.057,12.185-4.577,18.022c-0.526,2.021-1,3.859-1.516,5.922l-2.291,9.009
	c-0.285,1.183-2.245,8.368-2.26,9.185l23.294,0.396l7.278-29.199c3.397,1.838,6.239,3.271,10.269,4.137
	c4.32,0.928,8.185,1.246,13.091,0.918c3.961-0.266,8.38-1.553,11.267-2.912c1.651-0.777,3.036-1.586,4.562-2.545
	c5.751-3.617,10.612-8.784,14.196-14.432c7.468-11.769,12.293-32.519,4.315-44.772c-6.252-9.6-19.907-10.434-29.357-6.892
	c-3.514,1.317-8.202,3.841-11.446,5.888C359.041,41.996,358.551,42.334,357.973,42.62z"/>
<path fill-rule="evenodd" clip-rule="evenodd" fill="#F69126" d="M549.815,107.217l23.294,0.213l3.557-13.922
	c0.194-0.733,0.422-1.617,0.578-2.287c0.205-0.88,0.44-1.629,0.617-2.392c0.201-0.862,0.39-1.431,0.591-2.274
	c0.271-1.139,0.183-1.367,1-2.005l3.944-3.347c0.354-0.283,0.446-0.301,0.796-0.633l4.852-4.01l11.885,27.178
	c0.293,0.666,0.542,1.31,0.833,1.977c0.263,0.604,0.67,1.277,0.825,1.982l24.445,0.224l-16.757-36.244
	c-0.204-0.419-0.38-0.766-0.605-1.224c-0.447-0.904-0.755-1.74-1.199-2.596c0.448-0.288,0.64-0.596,1.065-0.936l19.062-17.104
	c0.417-0.383,0.673-0.492,1.1-0.902l10.521-9.493c0.704-0.679,4.424-4.268,4.952-5.017l-25.164-0.229
	c-1.611-0.024-4.133,2.821-5.002,3.677c-2.758,2.719-6.535,6.424-9.357,8.798c-0.275,0.232-0.466,0.443-0.732,0.698l-8.638,8.232
	c-1.746,1.395-5.559,5.145-7.232,6.776l-5.885,5.41l3.624-14.427c1.117-4.645,2.606-9.796,3.658-14.394
	c1.857-8.117,4.407-17.006,6.393-25.268c0.204-0.845,0.856-3.004,0.868-3.717l-23.294-0.212c-0.036,0.893-1.193,4.895-1.485,6.107
	c-2.402,9.982-5.206,20.408-7.703,30.405l-2.319,9.142c-0.278,1.111-0.472,2-0.775,3.094c-1.561,5.625-3.074,12.262-4.608,18.17
	c-0.522,2.008-1.065,4.086-1.554,6.182l-3.085,12.102c-0.508,1.955-1.067,4.053-1.528,6.065
	C551.048,102.346,549.915,106.248,549.815,107.217"/>
<path fill-rule="evenodd" clip-rule="evenodd" fill="#373736" d="M370.87,134.034c-0.046,2.569,1.247,4.933,4.083,4.927
	c3.129-0.004,2.719-0.277,5.204-1.559c-0.744,2.914-1.407,4.937-5.265,4.943c-2.143,0.003-3.416-0.818-4.442-0.84
	c-0.034,0.846-0.438,1.5-0.474,2.397c1.266,0.599,3.818,0.558,5.311,0.556c4.563-0.008,6.581-3.629,7.521-7.428l3.029-11.902
	l-2.443,0.004l-0.172,0.559c-4.842-2.547-9.881,0.189-11.518,4.728C371.315,131.5,370.892,132.824,370.87,134.034 M373.603,134.03
	c0.083-4.718,2.841-8.063,7.462-6.927c0.678,0.167,0.99,0.438,1.564,0.568l-1.576,6.176c-0.26,1.011-0.01,1.337-0.952,1.777
	c-1.042,0.485-2.556,1.34-4.044,1.172C374.387,136.608,373.571,135.775,373.603,134.03z"/>
<path fill-rule="evenodd" clip-rule="evenodd" fill="#373736" d="M498.614,138.764c3.172-0.005,2.834-0.336,5.204-1.559
	c-0.337,1.321-0.614,2.563-1.394,3.489c-2.406,2.868-7.319,0.635-8.313,0.614c-0.036,0.896-0.438,1.551-0.474,2.396
	c1.267,0.6,3.819,0.559,5.312,0.557c4.593-0.008,6.577-3.619,7.521-7.428c1.004-4.052,2.017-7.936,3.029-11.902l-2.444,0.004
	l-0.172,0.559c-4.724-2.486-9.823-0.037-11.593,4.938C494.021,134,494.298,138.771,498.614,138.764 M497.264,133.832
	c0.07-3.967,2.322-7.283,5.728-7.192c0.35,0.009,1.41,0.187,1.735,0.267c0.679,0.166,0.99,0.437,1.565,0.568l-1.812,7.233
	c-0.192,0.593-0.175,0.465-0.719,0.72c-1.041,0.485-2.555,1.339-4.043,1.17C498.049,136.41,497.233,135.577,497.264,133.832z"/>
<path fill-rule="evenodd" clip-rule="evenodd" fill="#373736" d="M542.279,125.16c-0.189,0.743-0.46,1.659-0.476,2.539
	c1.789-0.838,8.234-2.191,8.184,0.691c-0.008,0.437-0.164,0.982-0.311,1.27c-3.322,0.005-7.44,0.313-9.642,2.445
	c-4.207,4.075-0.038,10.442,7.633,5.453c-0.022,0.568-0.189,0.929-0.313,1.408l2.589-0.004l1.333-5.414
	c1.078-4.338,3.544-9.113-4.096-9.101C545.225,124.451,543.173,125.086,542.279,125.16 M543.649,137.142
	c-3.846,0.006-3.181-3.902,0.287-4.879c1.573-0.443,3.319-0.625,5.274-0.628l-0.797,3.223
	C547.984,136.352,544.559,137.14,543.649,137.142z"/>
<path fill-rule="evenodd" clip-rule="evenodd" fill="#373736" d="M443.063,125.32c-0.189,0.742-0.46,1.658-0.476,2.537
	c1.419-0.664,5.096-1.469,6.906-0.847c1.423,0.489,1.539,1.679,0.967,2.808c-3.473,0.006-9.063,0.447-10.663,3.726
	c-2.191,4.491,2.068,8.457,8.654,4.173l-0.195,1.406l2.471-0.001c0.456-1.784,0.885-3.665,1.36-5.388
	c0.428-1.55,1.257-4.373,1.284-5.895c0.07-4.014-6.414-3.268-9.115-2.767C443.905,125.139,443.503,125.283,443.063,125.32
	 M444.433,137.301c-1.258,0.001-2.214-0.33-2.469-1.371c-0.248-1.016,0.369-2.221,1.098-2.722c1.604-1.104,4.371-1.411,6.933-1.415
	c-0.027,0.668-0.342,1.506-0.508,2.222c-0.184,0.797-0.195,1.419-0.877,1.851C447.714,136.434,445.842,137.298,444.433,137.301z"/>
<path fill-rule="evenodd" clip-rule="evenodd" fill="#373736" d="M478.856,134.002c-0.061,3.436,2.446,5.354,5.944,5.348
	c1.848-0.002,3.13-0.133,4.948-0.809c0.932-0.348,0.993-0.132,1.194-1.107c0.134-0.648,0.336-1.328,0.396-1.9
	c-0.604,0.139-5.528,3.197-8.67,0.886c-1.311-0.965-1.075-2.71-1.05-4.112l10.353-0.018c0.612,0,0.642-1.475,0.808-2.496
	C494.104,121.665,479.054,122.844,478.856,134.002 M482.082,130.473c1.152-4.514,8.294-5.531,8.219-1.281
	c-0.029,1.655,0.302,1.268-3.905,1.275C484.958,130.469,483.52,130.471,482.082,130.473z"/>
<path fill-rule="evenodd" clip-rule="evenodd" fill="#373736" d="M354.912,133.919c-0.028,1.575,0.24,3.283,1.4,4.329
	c1.857,1.675,4.632,1.724,6.973,0.856c0.779-0.289,1.615-0.831,2.234-1.362c4.063-3.487,5.614-13.012-2.105-13
	c-2.574,0.004-4.834,1.316-6.008,2.768c-0.803,0.994-1.203,1.531-1.69,2.763C355.316,131.28,354.936,132.578,354.912,133.919
	 M360.742,137.574c-3.168,0.006-3.64-2.994-2.882-5.883c1.671-6.369,8.412-5.983,8.337-1.738l-0.015,0.846
	C366.124,134.103,364.026,137.569,360.742,137.574z"/>
<path fill-rule="evenodd" clip-rule="evenodd" fill="#373736" d="M511.467,135.643c-0.066,3.772,3.415,4.427,6.645,3.174
	c0.847-0.328,1.482-0.826,2.236-1.215l-0.195,1.406h2.471l3.558-14.104l-2.589,0.004c-0.022,0.542-0.264,1.311-0.407,1.891
	l-1.902,7.43c-0.298,1.355-0.229,1.117-0.831,1.467c-1.934,1.125-2.496,1.346-4.407,1.349c-3.239,0.006-1.335-4.723-0.706-7.159
	l1.208-4.965l-2.588,0.004l-1.272,5.332c-0.224,0.816-0.434,1.719-0.681,2.621C511.78,133.692,511.482,134.738,511.467,135.643"/>
<path fill-rule="evenodd" clip-rule="evenodd" fill="#373736" d="M465.995,129.512c-0.079,4.455,7.567,3.01,7.53,5.063l-0.013,0.704
	c-0.036,2.063-4.035,2.699-6.595,1.517l-2.181-1.22c-0.174,0.343-0.603,2.162-0.623,2.679c0.644,0.147,1.28,0.509,1.98,0.722
	c3.874,1.177,10.085-0.008,10.171-4.829c0.075-4.231-7.584-2.059-7.525-5.345c0.041-2.324,4.494-2.836,7.309-1.097
	c0.42,0.259,0.484,0.411,0.897,0.52c0.15-0.298,0.602-2.09,0.619-2.538C472.757,123.178,466.07,125.244,465.995,129.512"/>
<path fill-rule="evenodd" clip-rule="evenodd" fill="#373736" d="M399.279,137.514c-2.873,0.004-4.299-1.642-5.001-1.825
	c-0.192,0.753-0.54,1.877-0.622,2.679c0.643,0.147,1.28,0.51,1.979,0.722c2.423,0.736,5.89,0.538,7.945-0.876
	c2.791-1.919,3.64-6.022-1.134-6.945c-1.36-0.264-4.199-0.529-4.172-2.07c0.051-2.833,4.363-2.736,6.405-1.887
	c0.757,0.314,1.286,0.877,1.95,1.027c0.035-0.889,0.46-1.59,0.474-2.396c0.016-0.839-7.482-2.605-10.312,0.918
	c-1.418,1.767-1.869,3.712,0.031,5.264c1.342,1.098,4.865,1.047,5.912,1.916C403.573,134.734,403.445,137.506,399.279,137.514"/>
<path fill-rule="evenodd" clip-rule="evenodd" fill="#373736" d="M339.863,139.299l12.221-0.019c0.148-0.29,0.574-1.847,0.615-2.257
	l-9.49,0.016c0.014-0.77,0.297-1.459,0.471-2.114l2.627-10.295c0.188-0.699,0.321-1.321,0.524-2.06
	c0.171-0.618,0.325-1.582,0.553-2.031l-2.731,0.004c-0.395,1.543-0.811,3.164-1.203,4.684l-2.41,9.363
	c-0.216,0.865-0.379,1.471-0.588,2.283C340.299,137.459,339.924,138.709,339.863,139.299"/>
<path fill-rule="evenodd" clip-rule="evenodd" fill="#373736" d="M426.084,134.086c-0.071,4.029,2.563,5.354,6.232,5.348
	c1.291-0.002,2.664-0.504,3.631-0.83c0.813-0.275,0.953-0.292,1.145-1.154c0.149-0.67,0.313-1.198,0.326-1.971
	c-2.35,1.212-2.619,1.837-5.64,1.842c-3.886,0.006-3.558-5.574-1.332-8.5c1.875-2.464,4.966-2.648,7.513-0.93
	c0.396,0.268,0.533,0.451,0.877,0.678c0.166-0.329,0.615-2.285,0.625-2.82c-0.87-0.197-2.885-1.299-4.682-1.088
	c-2.695,0.316-4.531,0.991-6.182,2.893C426.987,129.412,426.133,131.334,426.084,134.086"/>
<path fill-rule="evenodd" clip-rule="evenodd" fill="#373736" d="M411.577,125.088l-1.726,0.004
	c-0.016,0.899-0.307,1.072-0.322,1.973l1.581-0.002c-0.323,0.639-2.157,8.146-2.17,8.885c-0.038,2.143,0.812,3.523,3.532,3.519
	c0.697-0.001,2.301-0.155,2.83-0.338c0.908-0.315,0.382-1.077,0.954-2.206c-0.556,0.014-4.626,1.361-4.587-0.838
	c0.029-1.611-0.002-1.319,0.396-2.906c0.274-1.096,1.462-5.42,1.489-6.119l4.746-0.008c0.608-0.001,0.744-1.453,0.754-1.975
	l-4.889,0.008c0.127-1.236,0.912-2.808,0.934-4.09c-3.146,0.005-2.318-0.431-2.967,1.922
	C411.924,123.674,411.757,124.383,411.577,125.088"/>
<path fill-rule="evenodd" clip-rule="evenodd" fill="#373736" d="M527.368,139c3.098-0.006,2.399,0.257,2.873-1.584l1.855-7.335
	c0.214-0.866,0.157-1.001,0.854-1.444c2.144-1.369,2.966-1.352,4.979-1.354c0.723-0.001,0.642,0.126,1.292,0.14
	c0.16-0.318,0.599-1.927,0.617-2.398c-2.698-0.614-4.813,0.464-6.935,1.844c0.15-0.59,0.44-1.322,0.467-1.975l-2.589,0.004
	c-0.026,0.645-0.627,2.678-0.816,3.491C529.637,129.802,527.386,138.02,527.368,139"/>
<path fill-rule="evenodd" clip-rule="evenodd" fill="#373736" d="M386.883,139.225l2.588-0.004l3.557-14.104l-2.588,0.005
	c-0.023,0.595-0.248,1.173-0.405,1.747l-1.337,5.269C388.168,134.42,387.479,136.891,386.883,139.225"/>
<path fill-rule="evenodd" clip-rule="evenodd" fill="#373736" d="M418.373,139.174l2.588-0.004l1.742-7.016
	c0.531-2.281,1.22-4.754,1.814-7.087l-2.588,0.004c-0.049,0.481-0.268,1.197-0.404,1.749L418.373,139.174z"/>
<path fill-rule="evenodd" clip-rule="evenodd" fill="#373736" d="M390.336,122.866c2.879-0.005,1.503,0.421,3.88-1.874
	c0.819-0.791,2.21-2.059,2.819-2.93l-3.451,0.006C393.41,118.668,390.548,122.135,390.336,122.866"/>
<path fill-rule="evenodd" clip-rule="evenodd" fill="#373736" d="M422.401,122.814l2.876-0.004c0.176-0.684,0.549-1.849,0.62-2.539
	l-2.876,0.005C422.951,120.967,422.576,122.131,422.401,122.814"/>
</svg>
